<svg width="144" height="35" viewBox="0 0 144 35" fill="none" xmlns="http://www.w3.org/2000/svg">
<path d="M18 0L20.4652 9.10444L27.4612 2.77806L24.6128 11.77L33.9186 10.2302L26.6609 16.2547L35.3219 19.9905L25.9593 21.1349L31.2256 28.9601L22.7306 24.861L22.9303 34.2911L18 26.25L13.0697 34.2911L13.2694 24.861L4.77438 28.9601L10.0407 21.1349L0.678125 19.9905L9.33906 16.2547L2.08144 10.2302L11.3872 11.77L8.53879 2.77806L15.5348 9.10444L18 0Z" fill="#598D66"/>
<path d="M44.98 25V10.8H47.74V25H44.98ZM60.1827 25H57.5027V19.12C57.5027 18.28 57.356 17.6667 57.0627 17.28C56.7693 16.8933 56.3627 16.7 55.8427 16.7C55.4827 16.7 55.116 16.7933 54.7427 16.98C54.3827 17.1667 54.056 17.4267 53.7627 17.76C53.4693 18.08 53.256 18.4533 53.1227 18.88V25H50.4427V14.52H52.8627V16.46C53.2493 15.8067 53.8093 15.2933 54.5427 14.92C55.276 14.5333 56.1027 14.34 57.0227 14.34C57.676 14.34 58.2093 14.46 58.6227 14.7C59.036 14.9267 59.356 15.24 59.5827 15.64C59.8093 16.0267 59.9627 16.4667 60.0427 16.96C60.136 17.4533 60.1827 17.9533 60.1827 18.46V25ZM69.673 25L66.613 20.48L65.193 21.88V25H62.513V10.4H65.193V19.24L69.413 14.54H72.253L68.353 18.98L72.533 25H69.673ZM73.6053 25V22.12H75.8053V25H73.6053ZM95.1622 10.8V25H92.4222V18.94H85.9822V25H83.2222V10.8H85.9822V16.54H92.4222V10.8H95.1622ZM102.529 25.2C101.382 25.2 100.395 24.9533 99.5688 24.46C98.7554 23.9533 98.1288 23.2867 97.6888 22.46C97.2488 21.6333 97.0288 20.74 97.0288 19.78C97.0288 18.8067 97.2488 17.9067 97.6888 17.08C98.1421 16.2533 98.7754 15.5933 99.5888 15.1C100.415 14.5933 101.395 14.34 102.529 14.34C103.662 14.34 104.635 14.5933 105.449 15.1C106.275 15.5933 106.909 16.2533 107.349 17.08C107.789 17.9067 108.009 18.8067 108.009 19.78C108.009 20.74 107.789 21.6333 107.349 22.46C106.909 23.2867 106.275 23.9533 105.449 24.46C104.635 24.9533 103.662 25.2 102.529 25.2ZM99.7888 19.78C99.7888 20.3933 99.9088 20.94 100.149 21.42C100.389 21.8867 100.715 22.2533 101.129 22.52C101.542 22.7867 102.009 22.92 102.529 22.92C103.035 22.92 103.495 22.7867 103.909 22.52C104.322 22.24 104.649 21.8667 104.889 21.4C105.142 20.92 105.269 20.3733 105.269 19.76C105.269 19.16 105.142 18.6267 104.889 18.16C104.649 17.68 104.322 17.3067 103.909 17.04C103.495 16.76 103.035 16.62 102.529 16.62C102.009 16.62 101.542 16.76 101.129 17.04C100.715 17.3067 100.389 17.68 100.149 18.16C99.9088 18.6267 99.7888 19.1667 99.7888 19.78ZM109.718 21.08V14.52H112.398V20.5C112.398 22.1133 112.978 22.92 114.138 22.92C114.658 22.92 115.158 22.7667 115.638 22.46C116.131 22.14 116.531 21.66 116.838 21.02V14.52H119.518V22C119.518 22.2933 119.564 22.5 119.658 22.62C119.751 22.7267 119.918 22.7933 120.158 22.82V25C119.891 25.0533 119.664 25.0867 119.478 25.1C119.304 25.1133 119.144 25.12 118.998 25.12C118.518 25.12 118.124 25.0133 117.818 24.8C117.524 24.5733 117.351 24.2667 117.298 23.88L117.238 23.04C116.771 23.76 116.171 24.3 115.438 24.66C114.704 25.02 113.898 25.2 113.018 25.2C111.938 25.2 111.118 24.8533 110.558 24.16C109.998 23.4533 109.718 22.4267 109.718 21.08ZM126.041 25.2C125.148 25.2 124.294 25.0533 123.481 24.76C122.668 24.4667 121.968 24.0333 121.381 23.46L122.341 21.72C122.968 22.2267 123.581 22.6 124.181 22.84C124.781 23.08 125.368 23.2 125.941 23.2C126.461 23.2 126.874 23.1067 127.181 22.92C127.501 22.7333 127.661 22.4533 127.661 22.08C127.661 21.6933 127.468 21.4333 127.081 21.3C126.694 21.1533 126.154 20.9733 125.461 20.76C124.688 20.52 124.041 20.2733 123.521 20.02C123.001 19.7667 122.608 19.46 122.341 19.1C122.088 18.74 121.961 18.2733 121.961 17.7C121.961 16.6733 122.348 15.8533 123.121 15.24C123.894 14.6267 124.921 14.32 126.201 14.32C126.948 14.32 127.654 14.44 128.321 14.68C128.988 14.9067 129.594 15.28 130.141 15.8L129.061 17.5C128.034 16.7 127.041 16.3 126.081 16.3C125.654 16.3 125.274 16.38 124.941 16.54C124.621 16.7 124.461 16.98 124.461 17.38C124.461 17.7533 124.614 18.02 124.921 18.18C125.241 18.34 125.721 18.5133 126.361 18.7C127.188 18.9533 127.888 19.2 128.461 19.44C129.048 19.68 129.488 19.9867 129.781 20.36C130.088 20.7333 130.241 21.24 130.241 21.88C130.241 22.92 129.861 23.7333 129.101 24.32C128.341 24.9067 127.321 25.2 126.041 25.2ZM136.924 25.2C135.79 25.2 134.81 24.9533 133.984 24.46C133.17 23.9667 132.537 23.3133 132.084 22.5C131.63 21.6733 131.404 20.78 131.404 19.82C131.404 18.8333 131.624 17.9267 132.064 17.1C132.517 16.26 133.157 15.5933 133.984 15.1C134.81 14.5933 135.797 14.34 136.944 14.34C138.09 14.34 139.07 14.5933 139.884 15.1C140.697 15.5933 141.317 16.2533 141.744 17.08C142.184 17.8933 142.404 18.7733 142.404 19.72C142.404 20.0667 142.384 20.3667 142.344 20.62H134.244C134.31 21.4333 134.61 22.0733 135.144 22.54C135.69 23.0067 136.317 23.24 137.024 23.24C137.557 23.24 138.057 23.1133 138.524 22.86C139.004 22.5933 139.33 22.2467 139.504 21.82L141.804 22.46C141.417 23.26 140.797 23.92 139.944 24.44C139.09 24.9467 138.084 25.2 136.924 25.2ZM134.184 18.92H139.664C139.584 18.1333 139.284 17.5 138.764 17.02C138.257 16.5267 137.637 16.28 136.904 16.28C136.184 16.28 135.564 16.5267 135.044 17.02C134.537 17.5 134.25 18.1333 134.184 18.92Z" fill="#598D66"/>
</svg>
